<?xml version="1.0" ?><svg viewBox="0 0 24 24" xmlns="http://www.w3.org/2000/svg"><title/><g data-name="Google Authenticator" id="Google_Authenticator"><path d="M24,11.65v-.17a.5.5,0,0,0-.5-.48H12a1,1,0,0,0-1,1,.5.5,0,0,1-1,0,2,2,0,0,1,2-2h2.44a.5.5,0,0,0,.35-.86A4,4,0,1,0,15.86,13h2.05a6,6,0,1,1-2.37-5.84.5.5,0,0,0,.65,0l3.56-3.56a.5.5,0,0,0,0-.74A12,12,0,1,0,24,12C24,11.88,24,11.77,24,11.65ZM12,2a1,1,0,1,1-1,1A1,1,0,0,1,12,2ZM4.93,4.93a1,1,0,0,1,1.41,0h0a1,1,0,1,1-1.41,0ZM3,13a1,1,0,1,1,1-1A1,1,0,0,1,3,13Zm3.34,6.07a1,1,0,1,1,.29-.71A1,1,0,0,1,6.34,19.07ZM12,22a1,1,0,1,1,1-1A1,1,0,0,1,12,22Zm7.07-2.93a1,1,0,1,1,.29-.71A1,1,0,0,1,19.07,19.07Z" style="fill:#303c42"/><path d="M16.84,8.47a6,6,0,0,1,.67,1.23A.5.5,0,0,0,18,10h5.24a.5.5,0,0,0,.49-.61,12,12,0,0,0-2.52-5.1.5.5,0,0,0-.36-.18.49.49,0,0,0-.37.15L16.89,7.82A.5.5,0,0,0,16.84,8.47Z" style="fill:#303c42"/></g></svg>