<?xml version="1.0" encoding="iso-8859-1"?>
<!-- Generator: Adobe Illustrator 19.0.0, SVG Export Plug-In . SVG Version: 6.00 Build 0)  -->
<svg version="1.1" id="Layer_1" xmlns="http://www.w3.org/2000/svg" xmlns:xlink="http://www.w3.org/1999/xlink" x="0px" y="0px"
	 viewBox="0 0 511.712 511.712" style="enable-background:new 0 0 511.712 511.712;" xml:space="preserve">
<g>
	<g>
		<g>
			<path d="M111.053,324.128h-0.094c-4.71,0-8.482,3.823-8.482,8.533s3.857,8.533,8.576,8.533c4.71,0,8.533-3.823,8.533-8.533
				S115.763,324.128,111.053,324.128z"/>
			<path d="M183.441,219.654l14.387-14.379l19.772,59.315c1.195,3.575,4.523,5.845,8.098,5.845c0.888,0,1.801-0.145,2.697-0.444
				c4.463-1.493,6.886-6.323,5.393-10.795l-24.141-72.414c-0.939-2.807-3.251-4.924-6.135-5.606
				c-2.884-0.683-5.905,0.179-7.996,2.27l-24.141,24.141c-3.328,3.328-3.328,8.73,0,12.066
				C174.711,222.982,180.113,222.982,183.441,219.654z"/>
			<path d="M76.919,289.995h-0.094c-4.71,0-8.482,3.823-8.482,8.533c0,4.71,3.857,8.533,8.576,8.533c4.71,0,8.533-3.823,8.533-8.533
				C85.453,293.818,81.63,289.995,76.919,289.995z"/>
			<path d="M259.84,222.359c1.186,3.576,4.514,5.837,8.09,5.837c0.887,0,1.801-0.145,2.697-0.444
				c4.471-1.493,6.886-6.323,5.393-10.795l-4.369-13.099l28.74-28.74l13.107,4.361c4.497,1.519,9.293-0.93,10.786-5.393
				c1.493-4.471-0.922-9.301-5.393-10.795l-72.397-24.141c-3.046-1.015-6.451-0.23-8.73,2.057c-2.287,2.287-3.089,5.675-2.065,8.738
				L259.84,222.359z M282.291,169.077l-16.674,16.683l-8.328-25.02L282.291,169.077z"/>
			<path d="M367.053,153.461c4.71,0,8.533-3.823,8.533-8.533s-3.823-8.533-8.533-8.533h-0.094c-4.71,0-8.482,3.823-8.482,8.533
				S362.334,153.461,367.053,153.461z"/>
			<path d="M145.186,358.261h-0.094c-4.71,0-8.482,3.823-8.482,8.533c0,4.71,3.857,8.533,8.576,8.533
				c4.71,0,8.533-3.823,8.533-8.533C153.719,362.084,149.897,358.261,145.186,358.261z"/>
			<path d="M332.919,119.328c4.71,0,8.533-3.823,8.533-8.533c0-4.71-3.823-8.533-8.533-8.533h-0.094
				c-4.71,0-8.482,3.823-8.482,8.533C324.344,115.505,328.201,119.328,332.919,119.328z"/>
			<path d="M298.786,85.195c4.71,0,8.533-3.823,8.533-8.533s-3.823-8.533-8.533-8.533h-0.094c-4.702,0-8.482,3.823-8.482,8.533
				S294.067,85.195,298.786,85.195z"/>
			<path d="M261.487,346.349l-10.479-5.137l1.271-12.049c0.384-3.601-1.553-7.04-4.813-8.593c-3.26-1.562-7.151-0.887-9.702,1.664
				l-8.346,8.337l-13.099-4.369c-3.063-1.024-6.46-0.222-8.73,2.065c-2.287,2.287-3.089,5.666-2.065,8.73l4.369,13.099l-8.346,8.346
				c-2.611,2.611-3.243,6.613-1.562,9.907c1.673,3.294,5.291,5.163,8.943,4.557l11.895-1.894l5.086,10.743
				c1.417,2.995,4.429,4.89,7.714,4.89h0.316c3.413-0.128,6.417-2.27,7.646-5.461l5.402-13.978l13.764-5.214
				c3.174-1.203,5.342-4.181,5.504-7.578C266.411,351.017,264.533,347.851,261.487,346.349z M232.806,356.683
				c-1.143-1.621-2.799-2.782-4.668-3.311c0.137-1.22,0.017-2.466-0.384-3.669l-0.631-1.911l1.903,0.64
				c1.545,0.521,3.149,0.572,4.685,0.205c0.495,1.69,1.493,3.2,2.893,4.301C234.965,353.747,233.634,355.061,232.806,356.683z"/>
			<path d="M401.186,170.528h-0.094c-4.702,0-8.482,3.823-8.482,8.533c0,4.71,3.857,8.533,8.576,8.533
				c4.71,0,8.533-3.823,8.533-8.533C409.719,174.351,405.897,170.528,401.186,170.528z"/>
			<path d="M435.319,204.661h-0.094c-4.702,0-8.482,3.823-8.482,8.533s3.857,8.533,8.576,8.533c4.71,0,8.533-3.823,8.533-8.533
				S440.03,204.661,435.319,204.661z"/>
			<path d="M177.417,322.234l24.132-24.132c3.337-3.337,3.337-8.738,0-12.066c-3.328-3.337-8.73-3.337-12.066,0l-18.099,18.099
				l-12.075-12.075l18.099-18.099c3.337-3.337,3.337-8.73,0-12.066l-24.132-24.141c-1.596-1.596-3.763-2.5-6.033-2.5
				c-2.261,0-4.429,0.905-6.033,2.5l-24.132,24.141c-3.337,3.328-3.337,8.73,0,12.066c3.337,3.328,8.73,3.328,12.066,0
				l18.099-18.099l12.066,12.066l-18.099,18.099c-1.596,1.604-2.5,3.772-2.5,6.033c0,2.261,0.905,4.437,2.5,6.033l24.141,24.141
				c1.673,1.664,3.849,2.5,6.033,2.5C173.568,324.734,175.753,323.898,177.417,322.234z"/>
			<path d="M382.165,225.67l-10.479-5.137l1.263-12.049c0.384-3.601-1.544-7.04-4.804-8.593c-3.26-1.553-7.159-0.896-9.711,1.664
				l-8.337,8.337l-13.099-4.369c-3.072-1.024-6.451-0.222-8.738,2.065c-2.278,2.287-3.081,5.666-2.057,8.73l4.369,13.099
				l-8.346,8.346c-2.62,2.611-3.251,6.613-1.57,9.907c1.681,3.294,5.265,5.154,8.943,4.557l11.912-1.894l5.077,10.743
				c1.417,2.995,4.42,4.89,7.714,4.89h0.307c3.413-0.128,6.426-2.278,7.646-5.461l5.402-13.978l13.773-5.214
				c3.174-1.203,5.342-4.181,5.495-7.578C387.089,230.338,385.212,227.172,382.165,225.67z M353.476,235.996
				c-1.135-1.621-2.79-2.782-4.668-3.311c0.145-1.212,0.017-2.458-0.384-3.661l-0.631-1.911l1.911,0.64
				c1.536,0.512,3.157,0.563,4.685,0.205c0.486,1.69,1.485,3.191,2.884,4.301C355.644,233.069,354.313,234.374,353.476,235.996z"/>
			<path d="M509.21,212.725c-23.936-23.945-23.945-62.916-0.008-86.861c3.336-3.337,3.336-8.738,0-12.066L397.918,2.507
				c-1.596-1.604-3.763-2.5-6.033-2.5c-2.261,0-4.429,0.896-6.033,2.5c-11.597,11.597-27.025,17.98-43.426,17.98
				c-16.41,0-31.829-6.383-43.435-17.98c-3.328-3.337-8.73-3.337-12.066,0L2.5,286.923c-1.596,1.604-2.5,3.772-2.5,6.033
				c0,2.261,0.905,4.437,2.5,6.033c11.605,11.605,17.997,27.025,17.997,43.435c0,16.401-6.391,31.829-17.997,43.426
				c-1.596,1.596-2.5,3.772-2.5,6.033c0,2.261,0.905,4.429,2.5,6.033l111.292,111.292c3.2,3.2,8.866,3.2,12.066,0
				c11.605-11.597,27.025-17.98,43.435-17.98c16.41,0,31.838,6.383,43.443,17.988c1.664,1.664,3.849,2.492,6.033,2.492
				c2.185,0,4.369-0.828,6.033-2.5L509.21,224.791C512.546,221.463,512.546,216.062,509.21,212.725z M218.445,491.433
				c-13.892-11.196-31.061-17.271-49.152-17.271c-18.099,0-35.26,6.076-49.143,17.271l-99.866-99.874
				c11.196-13.884,17.28-31.044,17.28-49.135c0-18.099-6.084-35.251-17.28-49.143L293.282,20.282
				c13.892,11.196,31.053,17.271,49.143,17.271c18.091,0,35.251-6.076,49.135-17.271l99.866,99.874
				c-22.98,28.595-22.98,69.683,0.009,98.278L218.445,491.433z"/>
			<path d="M321.818,286.01l-10.462-5.137l1.254-12.058c0.384-3.593-1.553-7.031-4.804-8.593c-3.26-1.545-7.159-0.887-9.711,1.673
				l-8.346,8.337l-13.09-4.369c-3.063-1.015-6.451-0.222-8.73,2.065c-2.287,2.287-3.089,5.666-2.057,8.73l4.352,13.107l-8.329,8.337
				c-2.62,2.611-3.251,6.613-1.57,9.907c1.664,3.294,5.342,5.137,8.934,4.557l11.913-1.894l5.069,10.743
				c1.417,2.995,4.429,4.89,7.723,4.89c0.094,0,0.205,0,0.307-0.008c3.413-0.12,6.426-2.27,7.646-5.453l5.402-13.978l13.764-5.214
				c3.174-1.203,5.342-4.19,5.504-7.578C326.741,290.677,324.873,287.503,321.818,286.01z M293.137,296.335
				c-1.135-1.621-2.79-2.782-4.668-3.311c0.145-1.212,0.017-2.458-0.384-3.661l-0.632-1.911l1.911,0.64
				c1.536,0.512,3.166,0.555,4.685,0.205c0.495,1.681,1.493,3.191,2.884,4.292C295.305,293.4,293.973,294.714,293.137,296.335z"/>
			<path d="M179.319,392.395h-0.094c-4.702,0-8.482,3.823-8.482,8.533s3.857,8.533,8.576,8.533c4.71,0,8.533-3.823,8.533-8.533
				S184.03,392.395,179.319,392.395z"/>
			<path d="M213.453,426.528h-0.094c-4.702,0-8.482,3.823-8.482,8.533s3.857,8.533,8.576,8.533c4.71,0,8.533-3.823,8.533-8.533
				S218.163,426.528,213.453,426.528z"/>
		</g>
	</g>
</g>
<g>
</g>
<g>
</g>
<g>
</g>
<g>
</g>
<g>
</g>
<g>
</g>
<g>
</g>
<g>
</g>
<g>
</g>
<g>
</g>
<g>
</g>
<g>
</g>
<g>
</g>
<g>
</g>
<g>
</g>
</svg>
