<?xml version="1.0" encoding="utf-8"?>
<!-- Svg Vector Icons : http://www.onlinewebfonts.com/icon -->
<!DOCTYPE svg PUBLIC "-//W3C//DTD SVG 1.1//EN" "http://www.w3.org/Graphics/SVG/1.1/DTD/svg11.dtd">
<svg version="1.1" xmlns="http://www.w3.org/2000/svg" xmlns:xlink="http://www.w3.org/1999/xlink" x="0px" y="0px" viewBox="0 0 1000 1000" enable-background="new 0 0 1000 1000" xml:space="preserve">
<metadata> Svg Vector Icons : http://www.onlinewebfonts.com/icon </metadata>
<g><g transform="translate(0.000000,511.000000) scale(0.100000,-0.100000)"><path d="M1011.3,4984.1c-93.6-29.9-205.2-147.4-235-245c-17.9-63.7-23.9-1099.5-23.9-4643.1v-4559.4l55.8-109.6c43.8-89.6,71.7-117.5,161.3-161.4L1079-4790h2770.7h2770.7l109.6,55.8c89.6,43.8,117.5,71.7,161.3,161.4l55.8,109.6v1368.4v1368.4l-123.5-25.9c-69.7-15.9-181.3-33.9-249-41.8l-125.5-14v-832.6v-834.6H3849.7H1250.3V368.9v3844.3h2599.4h2599.4v-205.2v-205.2l185.2-23.9c99.6-14,213.1-31.9,249-37.9l63.7-10v476.1v476.1l-53.8,109.6c-45.8,89.6-73.7,117.5-163.3,163.3l-109.6,53.8l-2768.7-2C1895.7,5006,1061.1,5000,1011.3,4984.1z M4457.2,4611.6v-139.4h-597.6h-597.6v139.4v139.4h597.6h597.6V4611.6z M4017-3833.9c262.9-133.5,260.9-507.9-2-635.4c-107.6-51.8-199.2-51.8-304.8-4c-143.4,65.7-209.1,171.3-209.1,332.6c0,103.6,31.9,175.3,113.5,251C3722.2-3788.1,3883.6-3764.2,4017-3833.9z"/><path d="M5283.8,3476.3c-448.2-69.7-772.8-171.3-1175.2-370.5c-820.7-404.3-1350.5-1049.7-1476-1798.7c-129.5-784.8,231.1-1563.6,986-2123.3c127.5-95.6,179.3-143.4,173.3-167.3c-15.9-51.8-231.1-916.3-231.1-926.2c0-6,324.7,99.6,723,233l721.1,245l199.2-35.8c306.8-57.8,926.2-69.7,1264.8-25.9c1205.1,151.4,2171.2,760.9,2591.4,1633.3c151.4,314.7,187.2,478,187.2,856.5c0,372.5-33.9,535.8-179.3,842.6c-119.5,251-235,418.3-430.2,627.4c-506,541.8-1312.6,920.2-2189.1,1029.8C6180.2,3528.1,5560.7,3518.1,5283.8,3476.3z M6624.4,3040c649.4-123.5,1266.8-436.2,1645.3-838.6c340.6-362.5,509.9-762.9,509.9-1211.1c0-1117.5-1187.1-2031.7-2710.9-2089.5c-1912.2-73.7-3378.2,1246.9-2908.1,2619.3c89.6,260.9,223.1,462.1,460.1,703.1c452.2,460.1,1041.7,737,1792.7,844.6C5696.2,3109.8,6335.5,3093.8,6624.4,3040z"/><path d="M4443.3,1524.2c-207.1-43.8-324.7-171.3-324.7-350.6c0-143.4,99.6-251,304.8-326.7c167.3-63.7,211.1-119.5,141.4-187.2c-39.8-39.8-207.2-41.8-316.7-2c-43.8,15.9-85.6,29.9-91.6,29.9c-13.9,0-57.8-157.3-57.8-207.1c0-43.8,179.3-91.6,336.6-91.6c308.7,0,480,125.5,480,348.6c0,169.3-77.7,255-322.7,356.5c-153.4,63.7-189.2,115.5-115.5,175.3c51.8,41.8,139.4,43.8,249,6c43.8-15.9,81.7-29.9,83.7-29.9c2,0,13.9,37.8,25.9,85.6c12,45.8,25.9,99.6,31.9,117.5c8,25.9-8,37.8-65.7,53.8C4682.3,1534.2,4532.9,1542.2,4443.3,1524.2z"/><path d="M5678.2,1526.2c-77.7-19.9-163.3-71.7-209.1-127.5c-31.9-41.8-31.9-41.8-45.8,31.9l-14,73.7h-137.4h-137.4V956.5V408.8h169.3h169.3v370.5v370.5l57.8,57.8c99.6,97.6,221.1,61.7,260.9-77.7c10-39.8,19.9-219.1,19.9-396.4V408.8H5971h159.4v324.7c0,177.3,10,354.6,19.9,394.4c43.8,153.4,221.1,187.2,288.8,55.8c23.9-41.8,29.9-139.4,29.9-416.3V408.8h169.3h169.3v384.4c0,402.4-12,484-85.7,593.6c-65.7,97.6-159.3,143.4-290.8,143.4c-125.5,0-205.2-33.9-292.8-123.5l-61.8-61.7l-25.9,49.8C5994.9,1498.3,5817.6,1560.1,5678.2,1526.2z"/><path d="M7385.3,1526.2c-201.2-41.8-324.7-169.3-326.7-336.6c-2-143.4,59.8-227.1,223.1-302.8c73.7-35.8,155.4-73.7,183.3-87.6c55.8-25.9,75.7-99.6,39.8-143.4c-31.9-37.8-209.1-35.8-320.7,2c-45.8,17.9-91.6,23.9-97.6,15.9c-11.9-13.9-59.7-183.2-59.7-213.1c0-6,49.8-25.9,113.5-43.8c79.7-23.9,161.3-29.9,284.8-23.9c217.1,10,332.7,67.7,396.4,201.2c53.8,109.6,53.8,183.3-2,292.8c-45.8,87.6-89.6,119.5-324.7,225.1c-79.7,35.9-101.6,53.8-105.6,97.6c-10,81.7,63.8,109.6,201.2,81.7c57.8-11.9,117.5-27.9,135.4-35.8c23.9-8,35.9,10,53.8,89.6c13.9,57.8,23.9,109.6,23.9,119.5C7803.5,1508.3,7508.8,1552.1,7385.3,1526.2z"/></g></g>
</svg>